<svg id="Capa_1" enable-background="new 0 0 510 510" height="512" viewBox="0 0 510 510" width="512" xmlns="http://www.w3.org/2000/svg" xmlns:xlink="http://www.w3.org/1999/xlink"><linearGradient id="SVGID_1_" gradientUnits="userSpaceOnUse" x1="126.998" x2="416.102" y1="88.79" y2="377.894"><stop offset="0" stop-color="#b3dafe"/><stop offset="1" stop-color="#7bacdf"/></linearGradient><linearGradient id="lg1"><stop offset="0" stop-color="#7bacdf" stop-opacity="0"/><stop offset="1" stop-color="#0681af"/></linearGradient><linearGradient id="SVGID_00000076574256601972263590000010229311884945373612_" gradientUnits="userSpaceOnUse" x1="111.26" x2="133.463" xlink:href="#lg1" y1="269.026" y2="269.026"/><linearGradient id="SVGID_00000183961989169594164100000014891643860296682376_" gradientUnits="userSpaceOnUse" x1="443.26" x2="387.224" xlink:href="#lg1" y1="258.743" y2="258.743"/><linearGradient id="lg2"><stop offset="0" stop-color="#eaf6ff"/><stop offset="1" stop-color="#b3dafe"/></linearGradient><linearGradient id="SVGID_00000157273944023907114430000008354983046062416562_" gradientUnits="userSpaceOnUse" x1="114.348" x2="463.256" xlink:href="#lg2" y1="152.554" y2="501.462"/><linearGradient id="SVGID_00000021089916570286435570000005887653702336212656_" gradientUnits="userSpaceOnUse" x1="230.266" x2="230.266" xlink:href="#lg1" y1="474" y2="526.039"/><linearGradient id="SVGID_00000131353045991665090020000000089737927153862065_" gradientUnits="userSpaceOnUse" x1="342.169" x2="369.267" xlink:href="#lg2" y1="448.297" y2="475.395"/><g><g><path d="m366.928 483.052h-239.389c-11.825 0-21.411-9.586-21.411-21.412v-440.228c0-11.826 9.586-21.412 21.411-21.412h304.389c11.825 0 21.412 9.586 21.412 21.412v375.228c0 47.724-38.688 86.412-86.412 86.412z" fill="url(#SVGID_1_)"/><path d="m106.128 461.64c0 11.825 9.586 21.412 21.411 21.412h36.721v-428.052h-58.132z" fill="url(#SVGID_00000076574256601972263590000010229311884945373612_)"/><path d="m398.165 34.435v389.153l-59.464 59.464h28.226c47.724 0 86.412-38.688 86.412-86.412v-307.031z" fill="url(#SVGID_00000183961989169594164100000014891643860296682376_)"/></g><g><g><g><g><g><path d="m382.46 26.95h-304.39c-11.82 0-21.41 9.58-21.41 21.41v440.23c0 11.82 9.59 21.41 21.41 21.41h239.39c47.72 0 86.41-38.69 86.41-86.41v-375.23c0-11.83-9.58-21.41-21.41-21.41zm-275.72 436.69c-13.25 0-24-10.74-24-24 0-13.25 10.75-24 24-24s24 10.75 24 24c0 13.26-10.75 24-24 24zm0-85.58c-13.25 0-24-10.75-24-24 0-13.26 10.75-24 24-24s24 10.74 24 24c0 13.25-10.75 24-24 24zm0-85.59c-13.25 0-24-10.74-24-24 0-13.25 10.75-24 24-24s24 10.75 24 24c0 13.26-10.75 24-24 24zm0-85.58c-13.25 0-24-10.74-24-24 0-13.25 10.75-24 24-24s24 10.75 24 24c0 13.26-10.75 24-24 24zm0-85.58c-13.25 0-24-10.75-24-24 0-13.26 10.75-24 24-24s24 10.74 24 24c0 13.25-10.75 24-24 24z" fill="url(#SVGID_00000157273944023907114430000008354983046062416562_)"/><g fill="#8ac9fe"><path d="m369.137 113.5h-199.877c-4.142 0-7.5-3.357-7.5-7.5s3.358-7.5 7.5-7.5h199.877c4.143 0 7.5 3.357 7.5 7.5s-3.358 7.5-7.5 7.5z"/><path d="m369.137 166.39h-199.877c-4.142 0-7.5-3.357-7.5-7.5s3.358-7.5 7.5-7.5h199.877c4.143 0 7.5 3.357 7.5 7.5s-3.358 7.5-7.5 7.5z"/><path d="m369.137 219.28h-199.877c-4.142 0-7.5-3.357-7.5-7.5s3.358-7.5 7.5-7.5h199.877c4.143 0 7.5 3.357 7.5 7.5s-3.358 7.5-7.5 7.5z"/><path d="m369.137 272.17h-199.877c-4.142 0-7.5-3.357-7.5-7.5s3.358-7.5 7.5-7.5h199.877c4.143 0 7.5 3.357 7.5 7.5s-3.358 7.5-7.5 7.5z"/><path d="m369.137 325.061h-199.877c-4.142 0-7.5-3.357-7.5-7.5s3.358-7.5 7.5-7.5h199.877c4.143 0 7.5 3.357 7.5 7.5s-3.358 7.5-7.5 7.5z"/><path d="m369.137 377.95h-199.877c-4.142 0-7.5-3.357-7.5-7.5s3.358-7.5 7.5-7.5h199.877c4.143 0 7.5 3.357 7.5 7.5s-3.358 7.5-7.5 7.5z"/></g><path d="m56.66 353.089v135.5c0 11.825 9.586 21.411 21.411 21.411h239.389c47.724 0 86.412-38.688 86.412-86.412v-70.499z" fill="url(#SVGID_00000021089916570286435570000005887653702336212656_)"/></g></g></g></g><path d="m317.46 510v-65.001c0-11.825 9.586-21.412 21.412-21.412h65.001c-.001 47.725-38.689 86.413-86.413 86.413z" fill="url(#SVGID_00000131353045991665090020000000089737927153862065_)"/></g></g></svg>