<svg id="Capa_1" enable-background="new 0 0 510 510" height="512" viewBox="0 0 510 510" width="512" xmlns="http://www.w3.org/2000/svg" xmlns:xlink="http://www.w3.org/1999/xlink"><linearGradient id="lg1"><stop offset="0" stop-color="#f1b0a2"/><stop offset="1" stop-color="#ca6e59"/></linearGradient><linearGradient id="SVGID_1_" gradientUnits="userSpaceOnUse" x1="101.392" x2="444.51" xlink:href="#lg1" y1="122.609" y2="465.727"/><linearGradient id="lg2"><stop offset="0" stop-color="#883f2e" stop-opacity="0"/><stop offset="1" stop-color="#883f2e"/></linearGradient><linearGradient id="SVGID_2_" gradientUnits="userSpaceOnUse" x1="36.787" x2="108.783" xlink:href="#lg2" y1="212.006" y2="364.999"/><linearGradient id="SVGID_3_" gradientTransform="matrix(1 0 0 -1 -29.711 -550.968)" gradientUnits="userSpaceOnUse" x1="489.25" x2="463.251" xlink:href="#lg2" y1="-976.766" y2="-862.771"/><linearGradient id="SVGID_4_" gradientUnits="userSpaceOnUse" x1="451.102" x2="419.802" xlink:href="#lg1" y1="263.91" y2="232.61"/><linearGradient id="SVGID_5_" gradientUnits="userSpaceOnUse" x1="427.085" x2="408.999" xlink:href="#lg1" y1="320.556" y2="302.47"/><linearGradient id="SVGID_6_" gradientUnits="userSpaceOnUse" x1="132.449" x2="64.292" xlink:href="#lg1" y1="130.583" y2="62.425"/><linearGradient id="SVGID_7_" gradientUnits="userSpaceOnUse" x1="108.982" x2="44.982" xlink:href="#lg1" y1="207.38" y2="143.38"/><linearGradient id="SVGID_8_" gradientUnits="userSpaceOnUse" x1="378.599" x2="320.838" xlink:href="#lg1" y1="89.257" y2="31.496"/><linearGradient id="SVGID_9_" gradientUnits="userSpaceOnUse" x1="194.857" x2="157.857" xlink:href="#lg1" y1="492.823" y2="455.824"/><linearGradient id="SVGID_10_" gradientUnits="userSpaceOnUse" x1="436.805" x2="167.159" xlink:href="#lg1" y1="408.845" y2="139.199"/><linearGradient id="SVGID_11_" gradientUnits="userSpaceOnUse" x1="255.25" x2="255.25" xlink:href="#lg2" y1="396.597" y2="515.176"/><g><path d="m77.339 464.184-57.259-48.953c-26.079-22.296-26.076-58.441.007-80.733 12.525-10.705 19.562-25.225 19.564-40.365l.002-19.444c.003-35.567-8.823-70.73-25.895-103.165-21.368-40.6-17.624-87.635 9.981-125.384 20.992-28.706 57.804-46.143 97.408-46.14l151.061.012c39.259.003 76.909 13.337 104.667 37.069l88.619 75.765c15.981 13.663 24.958 32.192 24.956 51.512l-.01 129.095c-.001 10.724-4.986 21.009-13.858 28.592-18.475 15.79-18.477 41.393-.005 57.186l19.548 16.712c18.4 15.731 18.481 41.211.182 57.026l-34.436 29.762c-20.191 17.451-47.712 27.27-76.426 27.267l-178.783-.014c-48.507-.002-95.026-16.478-129.323-45.8z" fill="url(#SVGID_1_)"/><path d="m39.651 294.132.002-19.444c.003-35.567-8.823-70.73-25.895-103.165-2.334-4.435-4.351-8.95-6.087-13.519h25.111c37.471 0 67.848 30.376 67.848 67.848 0 17.994-7.148 35.252-19.872 47.975l-53.965 53.965c8.297-9.711 12.857-21.483 12.858-33.66z" fill="url(#SVGID_2_)"/><path d="m496.306 452.97-34.436 29.762c-1.815 1.568-3.69 3.072-5.619 4.516l-33.115-33.115c-21.717-21.717-21.717-56.926 0-78.643l48.623-48.623c-13.478 15.813-11.875 38.093 4.817 52.364l19.548 16.712c18.399 15.732 18.48 41.212.182 57.027z" fill="url(#SVGID_3_)"/><g><circle cx="423.971" cy="236.779" fill="url(#SVGID_4_)" r="34.497"/><circle cx="411.407" cy="304.879" fill="url(#SVGID_5_)" r="19.934"/><circle cx="105.984" cy="104.118" fill="url(#SVGID_6_)" r="34.497"/><circle cx="71.325" cy="169.722" fill="url(#SVGID_7_)" r="19.792"/><circle cx="339.351" cy="50.009" fill="url(#SVGID_8_)" r="19.792"/><circle cx="160.525" cy="458.492" fill="url(#SVGID_9_)" r="19.792"/></g><path d="m383.122 151.643c-8.047-5.862-47.959 6.825-81.667 39.987-8.661-53.696-36.267-93.256-46.455-93.256s-37.794 39.56-46.455 93.256c-33.708-33.162-73.62-45.849-81.667-39.987-9.983 7.272-11.652 72.758 23.728 126.267 30.108 45.535 68.439 136.134 92.922 133.667 3.538-.357 7.095-.472 10.649-.424.546.007 1.099.007 1.646 0 3.554-.048 7.111.068 10.649.424 24.483 2.466 62.814-88.132 92.922-133.667 35.38-53.509 33.711-118.995 23.728-126.267z" fill="url(#SVGID_10_)"/><path d="m476.581 322.046c8.872-7.583 13.857-17.868 13.858-28.592l.004-59.454h-454.678c2.573 13.416 3.888 27.021 3.887 40.688l-.002 19.444c-.001 15.14-7.039 29.66-19.564 40.365-26.082 22.292-26.085 58.437-.007 80.733l57.259 48.953c34.297 29.322 80.815 45.797 129.322 45.801l178.784.016c28.714.002 56.234-9.817 76.426-27.267l34.436-29.762c18.299-15.815 18.218-41.295-.182-57.026l-19.548-16.712c-18.472-15.794-18.47-41.397.005-57.187z" fill="url(#SVGID_11_)"/></g></svg>