<svg id="Capa_1" enable-background="new 0 0 510 510" height="512" viewBox="0 0 510 510" width="512" xmlns="http://www.w3.org/2000/svg" xmlns:xlink="http://www.w3.org/1999/xlink"><linearGradient id="lg1"><stop offset="0" stop-color="#eaf6ff"/><stop offset="1" stop-color="#b3dafe"/></linearGradient><linearGradient id="SVGID_1_" gradientTransform="matrix(-.896 .444 .444 .896 1432.564 -290.861)" gradientUnits="userSpaceOnUse" x1="1257.508" x2="1365.612" xlink:href="#lg1" y1="-147.312" y2="-39.209"/><linearGradient id="lg2"><stop offset="0" stop-color="#7bacdf" stop-opacity="0"/><stop offset="1" stop-color="#0681af"/></linearGradient><linearGradient id="SVGID_00000103231080607294169770000017377611083984257922_" gradientTransform="matrix(-.896 .444 .444 .896 1432.564 -290.861)" gradientUnits="userSpaceOnUse" x1="1236.848" x2="1417.524" xlink:href="#lg2" y1="-125.813" y2="-107.669"/><linearGradient id="SVGID_00000004524901282903884260000012677024919723038884_" gradientUnits="userSpaceOnUse" x1="216.638" x2="249.901" xlink:href="#lg2" y1="185.06" y2="209.251"/><linearGradient id="SVGID_00000017483641943942497540000011628451689671323828_" gradientTransform="matrix(-.896 .444 .444 .896 1432.564 -290.861)" gradientUnits="userSpaceOnUse" x1="1300.204" x2="1300.204" xlink:href="#lg2" y1="-30.498" y2="22.554"/><linearGradient id="lg3"><stop offset="0" stop-color="#8bc727"/><stop offset="1" stop-color="#02905d"/></linearGradient><linearGradient id="SVGID_00000033346698160355117890000016859920637026114734_" gradientTransform="matrix(.896 -.444 .444 .896 52.148 392.645)" gradientUnits="userSpaceOnUse" x1="180.365" x2="399.473" xlink:href="#lg3" y1="45.437" y2="264.545"/><linearGradient id="SVGID_00000115514754562699597250000014056340250313865387_" gradientTransform="matrix(-.896 .444 -.444 -.896 1689.007 151.257)" gradientUnits="userSpaceOnUse" x1="1235.877" x2="1295.478" xlink:href="#lg3" y1="300.074" y2="359.674"/><linearGradient id="lg4"><stop offset="0" stop-color="#026841" stop-opacity="0"/><stop offset="1" stop-color="#3e5959"/></linearGradient><linearGradient id="SVGID_00000065776288454255469680000018208084353712945542_" gradientTransform="matrix(.896 -.444 .444 .896 52.148 392.645)" gradientUnits="userSpaceOnUse" x1="309.285" x2="309.285" xlink:href="#lg4" y1="204.951" y2="271.545"/><linearGradient id="SVGID_00000021115706636511378290000013172303123938001837_" gradientTransform="matrix(.896 .444 -.444 .896 246.965 -290.861)" gradientUnits="userSpaceOnUse" x1="209.422" x2="317.526" xlink:href="#lg1" y1="371.642" y2="479.746"/><linearGradient id="SVGID_00000111884564282504336580000000875758754163098510_" gradientTransform="matrix(.896 .444 -.444 .896 246.965 -290.861)" gradientUnits="userSpaceOnUse" x1="188.762" x2="369.439" xlink:href="#lg2" y1="393.142" y2="411.285"/><linearGradient id="SVGID_00000133488721759442669770000004722941228445209238_" gradientTransform="matrix(.896 .444 -.444 .896 246.965 -290.861)" gradientUnits="userSpaceOnUse" x1="252.118" x2="252.118" xlink:href="#lg2" y1="488.456" y2="541.509"/><linearGradient id="SVGID_00000172403057339367072650000005210453341201394829_" gradientUnits="userSpaceOnUse" x1="45.112" x2="215.314" xlink:href="#lg3" y1="303.615" y2="473.818"/><linearGradient id="SVGID_00000119075322510926969560000003693758582308148142_" gradientUnits="userSpaceOnUse" x1="160.834" x2="31.03" xlink:href="#lg3" y1="478.185" y2="348.38"/><linearGradient id="SVGID_00000003097043835515157710000011086269993159738767_" gradientTransform="matrix(-.896 -.444 -.444 .896 1627.381 392.645)" gradientUnits="userSpaceOnUse" x1="1357.371" x2="1357.371" xlink:href="#lg4" y1="723.905" y2="790.5"/><linearGradient id="SVGID_00000168077519981429244180000017221543999854135485_" gradientUnits="userSpaceOnUse" x1="300.038" x2="246.264" xlink:href="#lg2" y1="284.551" y2="230.777"/><linearGradient id="SVGID_00000013168258298004171150000011540737669307918733_" gradientUnits="userSpaceOnUse" x1="243.716" x2="262.176" y1="228.229" y2="246.689"><stop offset="0" stop-color="#fe93bb"/><stop offset="1" stop-color="#fd3581"/></linearGradient><g><g><g><g><path d="m124.248 82.699 87.031 175.77c4.921 9.938 13.588 17.514 24.094 21.062 10.507 3.548 19.174 11.124 24.094 21.062l23.119 46.691 46.19-22.871-156.354-315.776c-3.803-7.681-13.114-10.825-20.795-7.022-29.951 14.83-42.209 51.133-27.379 81.084z" fill="url(#SVGID_1_)"/><path d="m151.627 1.615c7.681-3.803 16.992-.66 20.795 7.022l156.355 315.776-21.986 10.886-7.348-2.481c-9.433-3.185-14.498-13.414-11.313-22.848l3.343-9.901c3.185-9.433-1.88-19.662-11.313-22.848l-9.901-3.343c-9.433-3.185-14.498-13.414-11.313-22.848l3.343-9.901c3.185-9.433-1.88-19.662-11.313-22.848 0 0-10.261-3.499-10.395-3.595-9.131-3.361-13.986-13.391-10.854-22.667l3.343-9.901c3.185-9.433-1.88-19.662-11.313-22.848l-9.901-3.343c-9.433-3.185-14.498-13.414-11.313-22.848l3.343-9.901c3.185-9.433-1.88-19.662-11.313-22.848l-9.901-3.343c-9.433-3.185-14.498-13.414-11.313-22.848l3.343-9.901c3.185-9.433-1.88-19.662-11.313-22.848l-9.901-3.343c-9.433-3.185-14.498-13.414-11.313-22.848l3.427-10.15c1.924-1.24 3.926-2.395 6.025-3.434z" fill="url(#SVGID_00000103231080607294169770000017377611083984257922_)"/><path d="m219.794 104.31-42.423 85.678 33.908 68.481c2.554 5.159 6.125 9.673 10.431 13.326l40.506-81.807z" fill="url(#SVGID_00000004524901282903884260000012677024919723038884_)"/><path d="m268.118 201.906 60.659 122.507-46.19 22.871-23.119-46.691c-4.921-9.938-13.588-17.514-24.094-21.062-10.507-3.548-19.174-11.124-24.094-21.062l-11.301-22.824z" fill="url(#SVGID_00000017483641943942497540000011628451689671323828_)"/></g><g><path d="m360.472 308.715c-11.847-23.926-40.846-33.717-64.771-21.871-23.925 11.847-33.717 40.845-21.871 64.771l52.574 106.179c22.662 45.769 78.121 65.356 123.969 42.854 45.951-22.553 64.799-78.13 42.104-123.965-18.443-37.248-58.635-56.573-97.623-50.231-14.102 2.294-28.042-4.933-34.382-17.737zm69.989 150.976c-23.197 11.486-51.315 1.991-62.801-21.206s-1.991-51.315 21.206-62.801 51.315-1.991 62.801 21.206c11.485 23.197 1.99 51.315-21.206 62.801z" fill="url(#SVGID_00000033346698160355117890000016859920637026114734_)"/><path d="m441.195 481.37c35.167-17.413 49.563-60.047 32.15-95.214s-60.047-49.563-95.214-32.15-49.563 60.047-32.15 95.214 60.046 49.563 95.214 32.15zm-52.33-105.685c23.197-11.486 51.315-1.991 62.801 21.206s1.991 51.315-21.206 62.801-51.315 1.991-62.801-21.206c-11.485-23.197-1.99-51.316 21.206-62.801z" fill="url(#SVGID_00000115514754562699597250000014056340250313865387_)"/><path d="m430.461 459.691c-23.197 11.486-51.315 1.991-62.801-21.206l-40.8 20.202c22.939 45.126 77.966 64.315 123.512 41.96 45.951-22.553 64.799-78.13 42.104-123.965l-40.811 20.207c11.487 23.198 1.992 51.316-21.204 62.802z" fill="url(#SVGID_00000065776288454255469680000018208084353712945542_)"/></g></g><g><g><path d="m385.752 82.699-87.031 175.77c-4.921 9.938-13.588 17.514-24.094 21.062-10.507 3.548-19.174 11.124-24.094 21.062l-23.119 46.691-46.19-22.871 156.354-315.776c3.803-7.681 13.114-10.825 20.795-7.022 29.951 14.83 42.209 51.133 27.379 81.084z" fill="url(#SVGID_00000021115706636511378290000013172303123938001837_)"/><path d="m358.373 1.615c-7.681-3.803-16.992-.66-20.795 7.022l-156.355 315.776 21.986 10.886 7.348-2.481c9.433-3.185 14.498-13.414 11.313-22.848l-3.343-9.901c-3.185-9.433 1.88-19.662 11.313-22.848l9.901-3.343c9.433-3.185 14.498-13.414 11.313-22.848l-3.343-9.901c-3.185-9.433 1.88-19.662 11.313-22.848 0 0 10.261-3.499 10.395-3.595 9.131-3.361 13.986-13.391 10.854-22.667l-3.343-9.901c-3.185-9.433 1.88-19.662 11.313-22.848l9.901-3.343c9.433-3.185 14.498-13.414 11.313-22.848l-3.343-9.901c-3.185-9.433 1.88-19.662 11.313-22.848l9.901-3.343c9.433-3.185 14.498-13.414 11.313-22.848l-3.343-9.901c-3.185-9.433 1.88-19.662 11.313-22.848l9.901-3.343c9.433-3.185 14.498-13.414 11.313-22.848l-3.427-10.15c-1.924-1.24-3.926-2.395-6.025-3.434z" fill="url(#SVGID_00000111884564282504336580000000875758754163098510_)"/><path d="m241.882 201.906-60.659 122.507 46.19 22.871 23.119-46.691c4.921-9.938 13.588-17.514 24.094-21.062 10.507-3.548 19.174-11.124 24.094-21.062l11.301-22.824z" fill="url(#SVGID_00000133488721759442669770000004722941228445209238_)"/></g><g><path d="m115.146 326.452c-38.988-6.342-79.18 12.983-97.623 50.231-22.695 45.834-3.846 101.411 42.105 123.965 45.848 22.503 101.306 2.915 123.969-42.854l52.574-106.179c11.847-23.925 2.055-52.924-21.871-64.771-23.925-11.847-52.924-2.055-64.771 21.871-6.341 12.804-20.281 20.031-34.383 17.737zm-56.812 70.438c11.486-23.197 39.604-32.691 62.801-21.206 23.197 11.486 32.691 39.604 21.206 62.801s-39.604 32.691-62.801 21.206c-23.197-11.486-32.692-39.604-21.206-62.801z" fill="url(#SVGID_00000172403057339367072650000005210453341201394829_)"/><path d="m164.019 449.22c17.413-35.167 3.017-77.801-32.15-95.214s-77.801-3.017-95.214 32.15-3.017 77.801 32.15 95.214 77.801 3.017 95.214-32.15zm-21.679-10.734c-11.486 23.197-39.604 32.691-62.801 21.206-23.197-11.486-32.691-39.604-21.206-62.801s39.604-32.691 62.801-21.206 32.692 39.604 21.206 62.801z" fill="url(#SVGID_00000119075322510926969560000003693758582308148142_)"/><path d="m79.539 459.691c23.197 11.486 51.315 1.991 62.801-21.206l40.8 20.202c-22.94 45.126-77.966 64.315-123.512 41.96-45.951-22.553-64.799-78.13-42.104-123.965l40.811 20.207c-11.487 23.198-1.992 51.316 21.204 62.802z" fill="url(#SVGID_00000003097043835515157710000011086269993159738767_)"/></g></g></g><g><path d="m267.777 226.735-25.555 25.555 28.696 28.696c1.208-.541 2.443-1.029 3.707-1.456 10.507-3.548 19.174-11.124 24.094-21.062l.262-.528z" fill="url(#SVGID_00000168077519981429244180000017221543999854135485_)"/><circle cx="255" cy="239.513" fill="url(#SVGID_00000013168258298004171150000011540737669307918733_)" r="18.07"/></g></g></svg>